<svg id="Layer_1" enable-background="new 0 0 511.313 511.313" height="512" viewBox="0 0 511.313 511.313" width="512" xmlns="http://www.w3.org/2000/svg"><g><path d="m94.65 48.385h322.013v447.929h-322.013z" fill="#fff3dd"/><path d="m255.99 48.385h160.674v447.929h-160.674z" fill="#ffe7b9"/><path d="m431.664 511.313h-352.014v-477.928h352.014zm-322.014-30h292.014v-417.928h-292.014z" fill="#004c75"/><path d="m431.664 33.385h-175.674v30h145.674v417.928h-145.674v30h175.674z" fill="#00385b"/><path d="m170.474 0h170.365v96.769h-170.365z" fill="#00385b"/><g><path d="m177.522 265.513-36.581-45.757 23.432-18.733 13.419 16.785 33.255-40.646 23.219 18.997z" fill="#00d962"/></g><path d="m229.596 330.183-21.213-21.213-21.401 21.401-21.401-21.401-21.213 21.213 21.401 21.401-21.401 21.401 21.213 21.213 21.401-21.401 21.401 21.401 21.213-21.213-21.401-21.401z" fill="#fb2b2c"/><g><path d="m264.657 211.994h104v30h-104z" fill="#00243e"/></g><g><path d="m264.657 336.584h104v30h-104z" fill="#00243e"/></g><path d="m255.99 0h84.849v96.769h-84.849z" fill="#00243e"/></g></svg>